HIERARCHY
ROOT Hips
{
    OFFSET 0.000000 0.000000 0.000000
    CHANNELS 6 Xposition Yposition Zposition Zrotation Xrotation Yrotation
    JOINT Spine
    {
        OFFSET -0.000000 14.517291 0.000000
        CHANNELS 3 Zrotation Xrotation Yrotation
        JOINT Spine1
        {
            OFFSET -0.000000 37.558300 0.000000
            CHANNELS 3 Zrotation Xrotation Yrotation
            JOINT Neck
            {
                OFFSET -0.000000 37.404057 3.400369
                CHANNELS 3 Zrotation Xrotation Yrotation
                JOINT Head
                {
                    OFFSET -0.000000 24.785618 -3.540803
                    CHANNELS 3 Zrotation Xrotation Yrotation
                    End Site
                    {
                        OFFSET -0.000000 35.408028 0.000000
                    }
                }
            }
            JOINT LeftShoulder
            {
                OFFSET 6.992933 33.973492 -0.192664
                CHANNELS 3 Zrotation Xrotation Yrotation
                JOINT LeftArm
                {
                    OFFSET 21.527611 0.000000 0.000000
                    CHANNELS 3 Zrotation Xrotation Yrotation
                    JOINT LeftForeArm
                    {
                        OFFSET 56.353916 0.000000 0.000000
                        CHANNELS 3 Zrotation Xrotation Yrotation
                        JOINT LeftHand
                        {
                            OFFSET 47.774071 0.000000 0.000000
                            CHANNELS 3 Zrotation Xrotation Yrotation
                            End Site
                            {
                                OFFSET 26.556021 0.000000 0.000000
                            }
                        }
                    }
                }
            }
            JOINT RightShoulder
            {
                OFFSET -7.065357 33.973492 -0.192664
                CHANNELS 3 Zrotation Xrotation Yrotation
                JOINT RightArm
                {
                    OFFSET -21.527611 0.000000 0.000000
                    CHANNELS 3 Zrotation Xrotation Yrotation
                    JOINT RightForeArm
                    {
                        OFFSET -56.353916 0.000000 0.000000
                        CHANNELS 3 Zrotation Xrotation Yrotation
                        JOINT RightHand
                        {
                            OFFSET -47.774071 0.000000 0.000000
                            CHANNELS 3 Zrotation Xrotation Yrotation
                            End Site
                            {
                                OFFSET -26.556021 0.000000 0.000000
                            }
                        }
                    }
                }
            }
        }
    }
    JOINT LeftUpLeg
    {
        OFFSET 17.704014 0.000000 0.000000
        CHANNELS 3 Zrotation Xrotation Yrotation
        JOINT LeftLeg
        {
            OFFSET -0.000000 -81.181816 0.000000
            CHANNELS 3 Zrotation Xrotation Yrotation
            JOINT LeftFoot
            {
                OFFSET -0.000000 -62.821102 0.000000
                CHANNELS 3 Zrotation Xrotation Yrotation
                JOINT LeftToeBase
                {
                    OFFSET -0.000000 -11.507608 26.556021
                    CHANNELS 3 Zrotation Xrotation Yrotation
                    End Site
                    {
                        OFFSET -0.000000 0.000000 7.081605
                    }
                }
            }
        }
    }
    JOINT RightUpLeg
    {
        OFFSET -17.704014 0.000000 0.000000
        CHANNELS 3 Zrotation Xrotation Yrotation
        JOINT RightLeg
        {
            OFFSET -0.000000 -81.181816 0.000000
            CHANNELS 3 Zrotation Xrotation Yrotation
            JOINT RightFoot
            {
                OFFSET -0.000000 -62.821102 0.000000
                CHANNELS 3 Zrotation Xrotation Yrotation
                JOINT RightToeBase
                {
                    OFFSET -0.000000 -11.507608 26.556021
                    CHANNELS 3 Zrotation Xrotation Yrotation
                    End Site
                    {
                        OFFSET -0.000000 0.000000 7.081605
                    }
                }
            }
        }
    }
}
MOTION
Frames:    11
Frame Time:    0.008333
13.943799    155.798584    -119.295647    -0.645087    -5.266145    38.527279    -0.818872    -2.505452    -8.651206    -6.120915    7.605579    -2.472570    -7.570668    -16.403027    -18.868683    18.054306    18.822186    -17.969885    16.390816    -4.580311    -36.155323    -26.723734    2.767373    -101.812988    5.099472    -37.661892    -56.069759    -11.864753    -33.333149    -24.647079    -21.205309    -14.483367    -2.071660    39.705009    -16.146753    96.325081    3.801253    -4.396039    26.120419    -3.115094    -6.070420    28.775295    18.063387    -0.448705    3.502509    -13.553642    34.390594    -17.530661    3.468604    -27.634373    43.418091    0.000000    0.000000    0.000000    -16.574509    -18.776733    -10.420532    8.491119    21.604004    -15.079286    5.263889    12.509466    -13.693983    0.000000    0.000000    0.000000    
13.991855    155.779114    -119.286705    -0.615632    -5.256782    38.409222    -0.797607    -2.519051    -8.640048    -6.165014    7.605636    -2.466061    -7.576579    -16.453854    -18.854395    18.020132    18.942528    -17.968885    16.394445    -4.614422    -36.131828    -26.859362    2.710264    -101.839516    5.098896    -37.625515    -56.389729    -11.996575    -33.240017    -24.813017    -21.232943    -14.467740    -2.060931    39.737244    -16.107159    96.368561    3.758353    -4.427342    26.296133    -3.081006    -6.088022    28.738617    18.015896    -0.363715    3.586791    -13.554228    34.373055    -17.521013    3.500398    -27.660103    43.435787    0.000000    0.000000    0.000000    -16.603010    -18.825424    -10.373752    8.511716    21.667660    -15.036417    5.260319    12.489976    -13.675947    0.000000    0.000000    0.000000    
14.035940    155.761673    -119.271942    -0.588447    -5.254163    38.300583    -0.782666    -2.535529    -8.627107    -6.204674    7.618213    -2.458496    -7.537709    -16.512474    -18.813351    17.942488    19.045128    -17.948057    16.413120    -4.670766    -36.098530    -26.984074    2.680591    -101.860710    5.100469    -37.597908    -56.678009    -12.092785    -33.159756    -25.013735    -21.235157    -14.447648    -2.060689    39.779476    -16.070906    96.372917    3.736903    -4.421025    26.537590    -3.092521    -6.088956    28.773937    17.983047    -0.281439    3.649030    -13.579865    34.355446    -17.495487    3.503317    -27.701420    43.466278    0.000000    0.000000    0.000000    -16.623238    -18.864569    -10.337782    8.520526    21.733240    -14.986669    5.248811    12.468944    -13.638737    0.000000    0.000000    0.000000    
14.071338    155.739075    -119.260635    -0.570489    -5.248166    38.201454    -0.773995    -2.546366    -8.609522    -6.230281    7.609178    -2.451461    -7.516690    -16.534304    -18.783291    17.907888    19.126680    -17.933729    16.433846    -4.744936    -36.069279    -27.064186    2.695499    -101.854958    5.210026    -37.644497    -56.890919    -12.356501    -33.088516    -25.127085    -21.220648    -14.430707    -2.067585    39.751198    -16.000950    96.380844    3.661899    -4.458982    26.698759    -3.074874    -6.111694    28.829174    17.959139    -0.217424    3.702820    -13.607691    34.350956    -17.477789    3.561973    -27.720705    43.499813    0.000000    0.000000    0.000000    -16.638344    -18.911842    -10.329013    8.523928    21.799994    -14.924761    5.249113    12.431434    -13.633614    0.000000    0.000000    0.000000    
14.112576    155.717117    -119.243195    -0.546608    -5.248236    38.114857    -0.774562    -2.563150    -8.592257    -6.239435    7.613794    -2.444804    -7.514072    -16.527687    -18.757290    17.894821    19.173519    -17.914957    16.449883    -4.818403    -36.040665    -27.075253    2.718548    -101.858253    5.527810    -37.638927    -57.031441    -12.282217    -32.986313    -24.687153    -21.215813    -14.421409    -2.054404    39.776260    -15.950973    96.366005    3.641061    -4.438207    26.852579    -3.101150    -6.098685    28.858105    17.930128    -0.145539    3.759743    -13.613469    34.341213    -17.453222    3.574142    -27.754082    43.491589    0.000000    0.000000    0.000000    -16.659422    -18.940556    -10.311818    8.532026    21.866413    -14.861269    5.244230    12.386224    -13.605591    0.000000    0.000000    0.000000    
14.146969    155.695862    -119.228935    -0.528764    -5.259205    38.053261    -0.773319    -2.571091    -8.588511    -6.236917    7.620649    -2.443339    -7.482119    -16.525757    -18.725029    17.842716    19.218397    -17.896379    16.480442    -4.873426    -36.000088    -27.045317    2.748383    -101.871475    5.624527    -37.815830    -57.212761    -12.236932    -33.120880    -24.766499    -21.186052    -14.400243    -2.048886    39.747509    -15.919265    96.362350    3.615569    -4.411338    26.966272    -3.123056    -6.075449    28.865866    17.917000    -0.089851    3.794181    -13.628738    34.353809    -17.461054    3.597898    -27.793489    43.529472    0.000000    0.000000    0.000000    -16.673107    -18.950132    -10.332398    8.536408    21.914507    -14.805794    5.241504    12.352373    -13.571278    0.000000    0.000000    0.000000    
14.181731    155.672318    -119.218895    -0.511220    -5.268863    37.998775    -0.774036    -2.573505    -8.580893    -6.224277    7.602914    -2.442610    -7.521469    -16.445744    -18.717323    17.897118    19.228563    -17.885401    16.493290    -4.880745    -35.978836    -26.996201    2.751166    -101.871330    5.644931    -38.000477    -57.415981    -12.103795    -33.328701    -24.685032    -21.167000    -14.350798    -2.033278    39.767616    -15.913623    96.366180    3.637161    -4.334876    27.050484    -3.147565    -6.013823    28.878408    17.902063    -0.037011    3.818413    -13.640178    34.353886    -17.437937    3.654828    -27.806477    43.527206    0.000000    0.000000    0.000000    -16.692774    -18.962553    -10.332004    8.555284    21.969303    -14.769352    5.213000    12.313766    -13.533051    0.000000    0.000000    0.000000    
14.217035    155.651566    -119.208923    -0.486366    -5.282774    37.963974    -0.786807    -2.575705    -8.577915    -6.202921    7.604343    -2.442831    -7.511375    -16.382607    -18.701000    17.876896    19.228289    -17.874666    16.505671    -4.891403    -35.963741    -26.950052    2.752880    -101.865753    5.586464    -38.167961    -57.643612    -11.817416    -33.592831    -24.474257    -21.143045    -14.342071    -2.019014    39.830204    -15.902308    96.367188    3.695076    -4.184981    27.074642    -3.169803    -5.883968    28.851549    17.883671    0.014705    3.820294    -13.659451    34.358665    -17.421915    3.679678    -27.844360    43.549385    0.000000    0.000000    0.000000    -16.715670    -18.957544    -10.364204    8.557811    22.016283    -14.743320    5.190648    12.283375    -13.492134    0.000000    0.000000    0.000000    
14.243725    155.626389    -119.208374    -0.462305    -5.289075    37.938988    -0.816658    -2.571746    -8.573780    -6.152994    7.603592    -2.444560    -7.494920    -16.328852    -18.689478    17.832069    19.226601    -17.869165    16.500063    -4.888202    -35.950680    -26.940094    2.725624    -101.847031    5.377773    -38.251942    -57.956932    -11.416737    -33.861469    -24.164457    -21.153170    -14.335730    -2.035112    39.929333    -15.883035    96.389465    3.773437    -4.037136    27.056870    -3.185719    -5.759161    28.864574    17.859392    0.048590    3.831898    -13.658753    34.370941    -17.408739    3.692805    -27.882568    43.535992    0.000000    0.000000    0.000000    -16.750362    -18.960810    -10.381993    8.577448    22.065136    -14.731587    5.176301    12.250835    -13.459127    0.000000    0.000000    0.000000    
14.272817    155.604294    -119.202568    -0.438739    -5.302312    37.930603    -0.839035    -2.569579    -8.573159    -6.122719    7.606441    -2.445983    -7.463705    -16.308876    -18.678366    17.785671    19.288397    -17.876728    16.527826    -4.910614    -35.953983    -27.003490    2.709916    -101.793266    5.147264    -38.264210    -58.235306    -11.173991    -34.029396    -23.943110    -21.137245    -14.315437    -2.054057    39.970085    -15.863158    96.400520    3.830512    -3.937578    27.012993    -3.208952    -5.678965    28.898996    17.842255    0.077429    3.818347    -13.670022    34.397755    -17.414768    3.733284    -27.916790    43.563965    0.000000    0.000000    0.000000    -16.778212    -18.948097    -10.415516    8.580545    22.112534    -14.718277    5.186779    12.207095    -13.417456    0.000000    0.000000    0.000000    
14.298618    155.581757    -119.203735    -0.419398    -5.308220    37.926308    -0.863672    -2.565094    -8.570070    -6.089083    7.593652    -2.447652    -7.409912    -16.249802    -18.660488    17.722521    19.298357    -17.877171    16.560225    -4.930482    -35.971050    -27.078903    2.704440    -101.717361    4.958590    -38.252075    -58.463173    -11.143674    -34.104927    -23.868734    -21.137304    -14.297683    -2.071313    39.995850    -15.834548    96.390007    3.874648    -3.862668    26.940552    -3.209362    -5.612739    28.913044    17.822077    0.093082    3.824759    -13.669059    34.427132    -17.409332    3.763756    -27.940620    43.561047    0.000000    0.000000    0.000000    -16.809973    -18.943298    -10.442966    8.593036    22.151949    -14.711948    5.175956    12.176844    -13.389564    0.000000    0.000000    0.000000    
